# xmcd
#
# Track frame offsets:
# 150
# 17035
# 38807
# 55093
# 65339
# 79961
# 95501
# 107297
# 129816
# 142540
# 161786
# 182501
# 197333
# 211694
# 226574
# 242615
# 260417
# 276038
# 291864
# 309913
# 328423
#
# Disc length: 4498 seconds
#
#
# Revision: 0
# Processed by: cddbd v1.5.2PL0 Copyright (c) Steve Scherf et al.
# Submitted via: FreeRIP 2.951 
#
DISCID=0c119015
DTITLE=INTÉRPRETES  PIAUIENSES - NATAL MUSICAL
DYEAR=2006
DGENRE=MPB
TTITLE0=NAENO - MORENA
TTITLE1=ISAC FOLHA - PIAUÍ
TTITLE2=ASSIS BATISTA - QUANDO O AMOR
TTITLE3=LAURENICE E RORAIMA - SERAFIM
TTITLE4=WILKER MARQUES - BAMBUGEM
TTITLE5=VAVÁ RIBEIRO - CALMARIA
TTITLE6=RORAIMA - PIAUÍ
TTITLE7=LAURENICE FRANÇA - MEU MEDO
TTITLE8=EVANGELISTA DO ACORDEON - MENINO POBRE
TTITLE9=CAROL COSTA - TERESINA
TTITLE10=WILKER MARQUES - CALEIDOSCÓPIO
TTITLE11=ZÉ RODRIGUES - NUM-SE-PODE
TTITLE12=CAROL COSTA - QUE NEM EU
TTITLE13=LÁZARO DO PIAUÍ - CORAÇÃO NAMORADOS
TTITLE14=ISAC FOLHA - ESPERAR
TTITLE15=VAVÁ RIBEIRO - ANCORADO
TTITLE16=EVANGELISTA DO ACORDEON - COMO VIVER SEM VOCÊ
TTITLE17=CRISTIANE MONTE - DE REPENTE
TTITLE18=ASSIS BATISTA - À SAUDADE
TTITLE19=FRANCY MONTE - TRILHA
TTITLE20=LÁZARO DO PIAUÍ - NOSSA TERRA NOSSA GENTE
EXTD=informações   geovane.barras@hotmail.com
EXTT0=
EXTT1=
EXTT2=
EXTT3=
EXTT4=
EXTT5=
EXTT6=
EXTT7=
EXTT8=
EXTT9=
EXTT10=
EXTT11=
EXTT12=
EXTT13=
EXTT14=
EXTT15=
EXTT16=
EXTT17=
EXTT18=
EXTT19=
EXTT20=
PLAYORDER=
